<mxfile host="app.diagrams.net" modified="2022-09-24T09:01:57.254Z" agent="5.0 (Macintosh; Intel Mac OS X 10_15_7) AppleWebKit/537.36 (KHTML, like Gecko) Chrome/105.0.0.0 Safari/537.36" etag="BOA8Xw-Tv-72E0x8nyYa" version="20.3.6" type="github" pages="3">
  <diagram id="2KM-rFrR2xTsXC9PlKku" name="第 1 页">
    <mxGraphModel dx="1106" dy="1734" grid="1" gridSize="10" guides="1" tooltips="1" connect="1" arrows="1" fold="1" page="1" pageScale="1" pageWidth="850" pageHeight="1100" math="0" shadow="0">
      <root>
        <mxCell id="0" />
        <mxCell id="1" parent="0" />
        <mxCell id="3FKa7wvlGTYPQKq6c4H--8" value="" style="rounded=1;whiteSpace=wrap;html=1;" parent="1" vertex="1">
          <mxGeometry x="70" y="50" width="430" height="600" as="geometry" />
        </mxCell>
        <mxCell id="3FKa7wvlGTYPQKq6c4H--9" value="BAT" style="rounded=0;whiteSpace=wrap;html=1;" parent="1" vertex="1">
          <mxGeometry x="120" y="250" width="120" height="240" as="geometry" />
        </mxCell>
        <mxCell id="3FKa7wvlGTYPQKq6c4H--10" value="HUB" style="rounded=0;whiteSpace=wrap;html=1;" parent="1" vertex="1">
          <mxGeometry x="225" y="80" width="120" height="60" as="geometry" />
        </mxCell>
        <mxCell id="3FKa7wvlGTYPQKq6c4H--12" value="" style="edgeStyle=elbowEdgeStyle;elbow=vertical;endArrow=classic;html=1;rounded=0;startArrow=classic;startFill=1;" parent="1" source="3FKa7wvlGTYPQKq6c4H--10" target="3FKa7wvlGTYPQKq6c4H--9" edge="1">
          <mxGeometry width="50" height="50" relative="1" as="geometry">
            <mxPoint x="450" y="320" as="sourcePoint" />
            <mxPoint x="500" y="270" as="targetPoint" />
            <Array as="points">
              <mxPoint x="260" y="190" />
            </Array>
          </mxGeometry>
        </mxCell>
        <mxCell id="3FKa7wvlGTYPQKq6c4H--20" value="" style="rounded=1;whiteSpace=wrap;html=1;" parent="1" vertex="1">
          <mxGeometry x="70" y="680" width="430" height="600" as="geometry" />
        </mxCell>
        <mxCell id="3FKa7wvlGTYPQKq6c4H--21" value="matrix keys" style="rounded=0;whiteSpace=wrap;html=1;" parent="1" vertex="1">
          <mxGeometry x="120" y="710" width="120" height="100" as="geometry" />
        </mxCell>
        <mxCell id="3FKa7wvlGTYPQKq6c4H--22" value="thumb keys" style="rounded=0;whiteSpace=wrap;html=1;" parent="1" vertex="1">
          <mxGeometry x="250" y="710" width="120" height="50" as="geometry" />
        </mxCell>
        <mxCell id="3FKa7wvlGTYPQKq6c4H--17" value="" style="group;container=1;" parent="1" vertex="1" connectable="0">
          <mxGeometry x="270" y="250" width="210" height="360" as="geometry" />
        </mxCell>
        <mxCell id="3FKa7wvlGTYPQKq6c4H--11" value="" style="rounded=0;whiteSpace=wrap;html=1;" parent="3FKa7wvlGTYPQKq6c4H--17" vertex="1">
          <mxGeometry width="210" height="360" as="geometry" />
        </mxCell>
        <mxCell id="3FKa7wvlGTYPQKq6c4H--16" value="&lt;meta charset=&quot;utf-8&quot;&gt;&lt;span style=&quot;color: rgb(0, 0, 0); font-family: Helvetica; font-size: 12px; font-style: normal; font-variant-ligatures: normal; font-variant-caps: normal; font-weight: 400; letter-spacing: normal; orphans: 2; text-align: center; text-indent: 0px; text-transform: none; widows: 2; word-spacing: 0px; -webkit-text-stroke-width: 0px; background-color: rgb(248, 249, 250); text-decoration-thickness: initial; text-decoration-style: initial; text-decoration-color: initial; float: none; display: inline !important;&quot;&gt;Main Board&lt;/span&gt;" style="text;html=1;strokeColor=none;fillColor=none;align=center;verticalAlign=middle;whiteSpace=wrap;rounded=0;" parent="3FKa7wvlGTYPQKq6c4H--17" vertex="1">
          <mxGeometry x="55" y="10" width="100" height="30" as="geometry" />
        </mxCell>
        <mxCell id="3FKa7wvlGTYPQKq6c4H--18" value="ESP32" style="rounded=0;whiteSpace=wrap;html=1;" parent="3FKa7wvlGTYPQKq6c4H--17" vertex="1">
          <mxGeometry x="45" y="270" width="120" height="60" as="geometry" />
        </mxCell>
        <mxCell id="3FKa7wvlGTYPQKq6c4H--13" value="" style="edgeStyle=elbowEdgeStyle;elbow=vertical;endArrow=classic;html=1;rounded=0;exitX=0.75;exitY=1;exitDx=0;exitDy=0;entryX=0.25;entryY=0;entryDx=0;entryDy=0;" parent="1" source="3FKa7wvlGTYPQKq6c4H--10" target="3FKa7wvlGTYPQKq6c4H--18" edge="1">
          <mxGeometry width="50" height="50" relative="1" as="geometry">
            <mxPoint x="270" y="170" as="sourcePoint" />
            <mxPoint x="190" y="440" as="targetPoint" />
            <Array as="points">
              <mxPoint x="330" y="190" />
            </Array>
          </mxGeometry>
        </mxCell>
        <mxCell id="3FKa7wvlGTYPQKq6c4H--24" value="" style="edgeStyle=elbowEdgeStyle;elbow=vertical;endArrow=classic;html=1;rounded=0;exitX=0.25;exitY=1;exitDx=0;exitDy=0;entryX=0.5;entryY=0;entryDx=0;entryDy=0;" parent="1" source="3FKa7wvlGTYPQKq6c4H--18" target="3FKa7wvlGTYPQKq6c4H--21" edge="1">
          <mxGeometry width="50" height="50" relative="1" as="geometry">
            <mxPoint x="580" y="530" as="sourcePoint" />
            <mxPoint x="630" y="480" as="targetPoint" />
            <Array as="points">
              <mxPoint x="260" y="660" />
            </Array>
          </mxGeometry>
        </mxCell>
        <mxCell id="3FKa7wvlGTYPQKq6c4H--25" value="" style="edgeStyle=elbowEdgeStyle;elbow=vertical;endArrow=classic;html=1;rounded=0;exitX=0.5;exitY=1;exitDx=0;exitDy=0;entryX=0.5;entryY=0;entryDx=0;entryDy=0;" parent="1" source="3FKa7wvlGTYPQKq6c4H--18" target="3FKa7wvlGTYPQKq6c4H--22" edge="1">
          <mxGeometry width="50" height="50" relative="1" as="geometry">
            <mxPoint x="355" y="590" as="sourcePoint" />
            <mxPoint x="190" y="720" as="targetPoint" />
            <Array as="points">
              <mxPoint x="270" y="670" />
            </Array>
          </mxGeometry>
        </mxCell>
        <mxCell id="3FKa7wvlGTYPQKq6c4H--31" value="" style="group" parent="1" vertex="1" connectable="0">
          <mxGeometry x="520" y="415" width="140" height="270" as="geometry" />
        </mxCell>
        <mxCell id="3FKa7wvlGTYPQKq6c4H--29" value="" style="rounded=1;whiteSpace=wrap;html=1;" parent="3FKa7wvlGTYPQKq6c4H--31" vertex="1">
          <mxGeometry width="140" height="270" as="geometry" />
        </mxCell>
        <mxCell id="3FKa7wvlGTYPQKq6c4H--26" value="WIFI" style="rounded=1;whiteSpace=wrap;html=1;" parent="3FKa7wvlGTYPQKq6c4H--31" vertex="1">
          <mxGeometry x="10" y="30" width="120" height="60" as="geometry" />
        </mxCell>
        <mxCell id="3FKa7wvlGTYPQKq6c4H--27" value="BLE" style="rounded=1;whiteSpace=wrap;html=1;" parent="3FKa7wvlGTYPQKq6c4H--31" vertex="1">
          <mxGeometry x="10" y="110" width="120" height="60" as="geometry" />
        </mxCell>
        <mxCell id="3FKa7wvlGTYPQKq6c4H--28" value="USB" style="rounded=1;whiteSpace=wrap;html=1;" parent="3FKa7wvlGTYPQKq6c4H--31" vertex="1">
          <mxGeometry x="10" y="190" width="120" height="60" as="geometry" />
        </mxCell>
        <mxCell id="3FKa7wvlGTYPQKq6c4H--30" value="HID" style="text;html=1;strokeColor=none;fillColor=none;align=center;verticalAlign=middle;whiteSpace=wrap;rounded=0;" parent="3FKa7wvlGTYPQKq6c4H--31" vertex="1">
          <mxGeometry x="40" y="5" width="60" height="30" as="geometry" />
        </mxCell>
        <mxCell id="3FKa7wvlGTYPQKq6c4H--32" value="" style="endArrow=classic;html=1;rounded=0;exitX=1;exitY=0.5;exitDx=0;exitDy=0;entryX=0;entryY=0.5;entryDx=0;entryDy=0;" parent="1" source="3FKa7wvlGTYPQKq6c4H--18" target="3FKa7wvlGTYPQKq6c4H--29" edge="1">
          <mxGeometry width="50" height="50" relative="1" as="geometry">
            <mxPoint x="580" y="410" as="sourcePoint" />
            <mxPoint x="630" y="360" as="targetPoint" />
          </mxGeometry>
        </mxCell>
        <mxCell id="3FKa7wvlGTYPQKq6c4H--33" value="" style="rounded=1;whiteSpace=wrap;html=1;" parent="1" vertex="1">
          <mxGeometry x="690" y="50" width="540" height="340" as="geometry" />
        </mxCell>
        <mxCell id="3FKa7wvlGTYPQKq6c4H--35" value="" style="endArrow=classic;html=1;rounded=0;exitX=1;exitY=0.5;exitDx=0;exitDy=0;entryX=0;entryY=0.5;entryDx=0;entryDy=0;" parent="1" source="3FKa7wvlGTYPQKq6c4H--10" edge="1">
          <mxGeometry width="50" height="50" relative="1" as="geometry">
            <mxPoint x="580" y="370" as="sourcePoint" />
            <mxPoint x="900" y="110" as="targetPoint" />
          </mxGeometry>
        </mxCell>
        <mxCell id="3FKa7wvlGTYPQKq6c4H--36" value="" style="rounded=0;whiteSpace=wrap;html=1;" parent="1" vertex="1">
          <mxGeometry x="735" y="80" width="450" height="270" as="geometry" />
        </mxCell>
        <mxCell id="3FKa7wvlGTYPQKq6c4H--46" value="" style="edgeStyle=orthogonalEdgeStyle;rounded=0;orthogonalLoop=1;jettySize=auto;html=1;startArrow=classic;startFill=1;exitX=0.5;exitY=1;exitDx=0;exitDy=0;" parent="1" source="3FKa7wvlGTYPQKq6c4H--48" target="3FKa7wvlGTYPQKq6c4H--38" edge="1">
          <mxGeometry relative="1" as="geometry" />
        </mxCell>
        <mxCell id="3FKa7wvlGTYPQKq6c4H--37" value="HUB" style="text;html=1;strokeColor=none;fillColor=none;align=center;verticalAlign=middle;whiteSpace=wrap;rounded=0;" parent="1" vertex="1">
          <mxGeometry x="910" y="95" width="100" height="30" as="geometry" />
        </mxCell>
        <mxCell id="3FKa7wvlGTYPQKq6c4H--38" value="ESP32&lt;br&gt;连接hub并且不连电脑的时候，两个蓝牙合并为一个蓝牙&lt;br&gt;这个esp32作为两个键盘的usb信号接收端" style="rounded=0;whiteSpace=wrap;html=1;strokeColor=#b85450;fillColor=#f8cecc;" parent="1" vertex="1">
          <mxGeometry x="900" y="230" width="120" height="100" as="geometry" />
        </mxCell>
        <mxCell id="3FKa7wvlGTYPQKq6c4H--45" value="" style="edgeStyle=elbowEdgeStyle;elbow=vertical;endArrow=classic;html=1;rounded=0;entryX=1;entryY=0.5;entryDx=0;entryDy=0;" parent="1" source="3FKa7wvlGTYPQKq6c4H--38" target="3FKa7wvlGTYPQKq6c4H--29" edge="1">
          <mxGeometry width="50" height="50" relative="1" as="geometry">
            <mxPoint x="590" y="330" as="sourcePoint" />
            <mxPoint x="640" y="280" as="targetPoint" />
            <Array as="points">
              <mxPoint x="810" y="550" />
            </Array>
          </mxGeometry>
        </mxCell>
        <mxCell id="3FKa7wvlGTYPQKq6c4H--48" value="HUB 主控&lt;br&gt;能支持完整的USB4.0&lt;br&gt;根据设备识别转发消息到ESP32" style="rounded=0;whiteSpace=wrap;html=1;strokeColor=#b85450;fillColor=#f8cecc;" parent="1" vertex="1">
          <mxGeometry x="900" y="133" width="120" height="60" as="geometry" />
        </mxCell>
        <mxCell id="3FKa7wvlGTYPQKq6c4H--49" value="LCD/OLED&lt;br&gt;电量?&lt;br&gt;按键映射&lt;br&gt;键盘宏&lt;br&gt;快捷键&lt;br&gt;" style="rounded=0;whiteSpace=wrap;html=1;strokeColor=#000000;" parent="1" vertex="1">
          <mxGeometry x="120" y="820" width="120" height="90" as="geometry" />
        </mxCell>
        <mxCell id="Etxb9pp4HP891RAw7gNl-1" value="ESP8266接收器" style="rounded=0;whiteSpace=wrap;html=1;" parent="1" vertex="1">
          <mxGeometry x="530" y="-60" width="120" height="60" as="geometry" />
        </mxCell>
        <mxCell id="Etxb9pp4HP891RAw7gNl-2" value="" style="endArrow=classic;html=1;rounded=0;exitX=0.5;exitY=1;exitDx=0;exitDy=0;entryX=0.5;entryY=0;entryDx=0;entryDy=0;" parent="1" source="Etxb9pp4HP891RAw7gNl-1" target="3FKa7wvlGTYPQKq6c4H--29" edge="1">
          <mxGeometry width="50" height="50" relative="1" as="geometry">
            <mxPoint x="630" y="340" as="sourcePoint" />
            <mxPoint x="680" y="290" as="targetPoint" />
          </mxGeometry>
        </mxCell>
      </root>
    </mxGraphModel>
  </diagram>
  <diagram name="第一期，有线键盘" id="WUQPFPJ6k0-F2I33fOvo">
    <mxGraphModel dx="1106" dy="634" grid="1" gridSize="10" guides="1" tooltips="1" connect="1" arrows="1" fold="1" page="1" pageScale="1" pageWidth="850" pageHeight="1100" math="0" shadow="0">
      <root>
        <mxCell id="JVwRdVkRW0hpO9SeGSl3-0" />
        <mxCell id="JVwRdVkRW0hpO9SeGSl3-1" parent="JVwRdVkRW0hpO9SeGSl3-0" />
        <mxCell id="JVwRdVkRW0hpO9SeGSl3-2" value="" style="rounded=1;whiteSpace=wrap;html=1;" parent="JVwRdVkRW0hpO9SeGSl3-1" vertex="1">
          <mxGeometry x="70" y="50" width="430" height="600" as="geometry" />
        </mxCell>
        <mxCell id="JVwRdVkRW0hpO9SeGSl3-4" value="HUB" style="rounded=0;whiteSpace=wrap;html=1;" parent="JVwRdVkRW0hpO9SeGSl3-1" vertex="1">
          <mxGeometry x="225" y="80" width="120" height="60" as="geometry" />
        </mxCell>
        <mxCell id="JVwRdVkRW0hpO9SeGSl3-6" value="" style="rounded=1;whiteSpace=wrap;html=1;" parent="JVwRdVkRW0hpO9SeGSl3-1" vertex="1">
          <mxGeometry x="70" y="680" width="430" height="600" as="geometry" />
        </mxCell>
        <mxCell id="JVwRdVkRW0hpO9SeGSl3-7" value="matrix keys" style="rounded=0;whiteSpace=wrap;html=1;" parent="JVwRdVkRW0hpO9SeGSl3-1" vertex="1">
          <mxGeometry x="120" y="710" width="120" height="100" as="geometry" />
        </mxCell>
        <mxCell id="JVwRdVkRW0hpO9SeGSl3-8" value="thumb keys" style="rounded=0;whiteSpace=wrap;html=1;" parent="JVwRdVkRW0hpO9SeGSl3-1" vertex="1">
          <mxGeometry x="250" y="710" width="120" height="50" as="geometry" />
        </mxCell>
        <mxCell id="JVwRdVkRW0hpO9SeGSl3-9" value="" style="group;container=1;" parent="JVwRdVkRW0hpO9SeGSl3-1" vertex="1" connectable="0">
          <mxGeometry x="270" y="250" width="210" height="360" as="geometry" />
        </mxCell>
        <mxCell id="JVwRdVkRW0hpO9SeGSl3-10" value="" style="rounded=0;whiteSpace=wrap;html=1;" parent="JVwRdVkRW0hpO9SeGSl3-9" vertex="1">
          <mxGeometry width="210" height="360" as="geometry" />
        </mxCell>
        <mxCell id="JVwRdVkRW0hpO9SeGSl3-11" value="&lt;meta charset=&quot;utf-8&quot;&gt;&lt;span style=&quot;color: rgb(0, 0, 0); font-family: Helvetica; font-size: 12px; font-style: normal; font-variant-ligatures: normal; font-variant-caps: normal; font-weight: 400; letter-spacing: normal; orphans: 2; text-align: center; text-indent: 0px; text-transform: none; widows: 2; word-spacing: 0px; -webkit-text-stroke-width: 0px; background-color: rgb(248, 249, 250); text-decoration-thickness: initial; text-decoration-style: initial; text-decoration-color: initial; float: none; display: inline !important;&quot;&gt;Main Board&lt;/span&gt;" style="text;html=1;strokeColor=none;fillColor=none;align=center;verticalAlign=middle;whiteSpace=wrap;rounded=0;" parent="JVwRdVkRW0hpO9SeGSl3-9" vertex="1">
          <mxGeometry x="55" y="10" width="100" height="30" as="geometry" />
        </mxCell>
        <mxCell id="JVwRdVkRW0hpO9SeGSl3-12" value="ESP32" style="rounded=0;whiteSpace=wrap;html=1;" parent="JVwRdVkRW0hpO9SeGSl3-9" vertex="1">
          <mxGeometry x="45" y="270" width="120" height="60" as="geometry" />
        </mxCell>
        <mxCell id="JVwRdVkRW0hpO9SeGSl3-13" value="" style="edgeStyle=elbowEdgeStyle;elbow=vertical;endArrow=classic;html=1;rounded=0;exitX=0.75;exitY=1;exitDx=0;exitDy=0;entryX=0.25;entryY=0;entryDx=0;entryDy=0;" parent="JVwRdVkRW0hpO9SeGSl3-1" source="JVwRdVkRW0hpO9SeGSl3-4" target="JVwRdVkRW0hpO9SeGSl3-12" edge="1">
          <mxGeometry width="50" height="50" relative="1" as="geometry">
            <mxPoint x="270" y="170" as="sourcePoint" />
            <mxPoint x="190" y="440" as="targetPoint" />
            <Array as="points">
              <mxPoint x="330" y="190" />
            </Array>
          </mxGeometry>
        </mxCell>
        <mxCell id="JVwRdVkRW0hpO9SeGSl3-14" value="" style="edgeStyle=elbowEdgeStyle;elbow=vertical;endArrow=classic;html=1;rounded=0;exitX=0.25;exitY=1;exitDx=0;exitDy=0;entryX=0.5;entryY=0;entryDx=0;entryDy=0;" parent="JVwRdVkRW0hpO9SeGSl3-1" source="JVwRdVkRW0hpO9SeGSl3-12" target="JVwRdVkRW0hpO9SeGSl3-7" edge="1">
          <mxGeometry width="50" height="50" relative="1" as="geometry">
            <mxPoint x="580" y="530" as="sourcePoint" />
            <mxPoint x="630" y="480" as="targetPoint" />
            <Array as="points">
              <mxPoint x="260" y="660" />
            </Array>
          </mxGeometry>
        </mxCell>
        <mxCell id="JVwRdVkRW0hpO9SeGSl3-15" value="" style="edgeStyle=elbowEdgeStyle;elbow=vertical;endArrow=classic;html=1;rounded=0;exitX=0.5;exitY=1;exitDx=0;exitDy=0;entryX=0.5;entryY=0;entryDx=0;entryDy=0;" parent="JVwRdVkRW0hpO9SeGSl3-1" source="JVwRdVkRW0hpO9SeGSl3-12" target="JVwRdVkRW0hpO9SeGSl3-8" edge="1">
          <mxGeometry width="50" height="50" relative="1" as="geometry">
            <mxPoint x="355" y="590" as="sourcePoint" />
            <mxPoint x="190" y="720" as="targetPoint" />
            <Array as="points">
              <mxPoint x="270" y="670" />
            </Array>
          </mxGeometry>
        </mxCell>
        <mxCell id="JVwRdVkRW0hpO9SeGSl3-31" value="LCD/OLED&lt;br&gt;电量?&lt;br&gt;按键映射&lt;br&gt;键盘宏&lt;br&gt;快捷键&lt;br&gt;" style="rounded=0;whiteSpace=wrap;html=1;strokeColor=#000000;" parent="JVwRdVkRW0hpO9SeGSl3-1" vertex="1">
          <mxGeometry x="120" y="820" width="120" height="90" as="geometry" />
        </mxCell>
      </root>
    </mxGraphModel>
  </diagram>
  <diagram id="5Bd8zgVNkN4pKjJPPIAN" name="调用流程图">
    <mxGraphModel dx="1106" dy="1734" grid="1" gridSize="10" guides="1" tooltips="1" connect="1" arrows="1" fold="1" page="1" pageScale="1" pageWidth="850" pageHeight="1100" math="0" shadow="0">
      <root>
        <mxCell id="0" />
        <mxCell id="1" parent="0" />
        <mxCell id="GHDp1U4beQGM8JzhK_mK-12" value="" style="rounded=1;whiteSpace=wrap;html=1;dashed=1;fontColor=#FFFFFF;fillColor=none;arcSize=3;" vertex="1" parent="1">
          <mxGeometry x="10" y="130" width="400" height="380" as="geometry" />
        </mxCell>
        <mxCell id="GHDp1U4beQGM8JzhK_mK-4" style="edgeStyle=orthogonalEdgeStyle;rounded=0;orthogonalLoop=1;jettySize=auto;html=1;exitX=0.5;exitY=1;exitDx=0;exitDy=0;" edge="1" parent="1" source="GHDp1U4beQGM8JzhK_mK-1" target="GHDp1U4beQGM8JzhK_mK-2">
          <mxGeometry relative="1" as="geometry" />
        </mxCell>
        <mxCell id="GHDp1U4beQGM8JzhK_mK-1" value="keyboard (check)" style="rounded=0;whiteSpace=wrap;html=1;" vertex="1" parent="1">
          <mxGeometry x="40" y="150" width="120" height="60" as="geometry" />
        </mxCell>
        <mxCell id="GHDp1U4beQGM8JzhK_mK-6" style="edgeStyle=orthogonalEdgeStyle;rounded=0;orthogonalLoop=1;jettySize=auto;html=1;exitX=0.5;exitY=1;exitDx=0;exitDy=0;" edge="1" parent="1" source="GHDp1U4beQGM8JzhK_mK-2" target="GHDp1U4beQGM8JzhK_mK-5">
          <mxGeometry relative="1" as="geometry" />
        </mxCell>
        <mxCell id="GHDp1U4beQGM8JzhK_mK-2" value="button group (check)" style="rounded=0;whiteSpace=wrap;html=1;" vertex="1" parent="1">
          <mxGeometry x="40" y="260" width="120" height="60" as="geometry" />
        </mxCell>
        <mxCell id="GHDp1U4beQGM8JzhK_mK-5" value="button (callback)" style="rounded=0;whiteSpace=wrap;html=1;" vertex="1" parent="1">
          <mxGeometry x="40" y="370" width="120" height="60" as="geometry" />
        </mxCell>
        <mxCell id="GHDp1U4beQGM8JzhK_mK-7" value="button (callback)" style="rounded=0;whiteSpace=wrap;html=1;dashed=1;fontColor=#FFFFFF;fillColor=#000000;" vertex="1" parent="1">
          <mxGeometry x="250" y="260" width="120" height="60" as="geometry" />
        </mxCell>
        <mxCell id="GHDp1U4beQGM8JzhK_mK-11" style="edgeStyle=orthogonalEdgeStyle;rounded=0;orthogonalLoop=1;jettySize=auto;html=1;exitX=0.5;exitY=0;exitDx=0;exitDy=0;entryX=0;entryY=0.5;entryDx=0;entryDy=0;fontColor=#FFFFFF;" edge="1" parent="1" source="GHDp1U4beQGM8JzhK_mK-8" target="GHDp1U4beQGM8JzhK_mK-10">
          <mxGeometry relative="1" as="geometry" />
        </mxCell>
        <mxCell id="GHDp1U4beQGM8JzhK_mK-8" value="keyboard (callback)" style="rounded=0;whiteSpace=wrap;html=1;" vertex="1" parent="1">
          <mxGeometry x="250" y="150" width="120" height="60" as="geometry" />
        </mxCell>
        <mxCell id="GHDp1U4beQGM8JzhK_mK-9" value="" style="edgeStyle=elbowEdgeStyle;elbow=vertical;endArrow=classic;html=1;rounded=0;fontColor=#FFFFFF;exitX=0.5;exitY=1;exitDx=0;exitDy=0;entryX=0.5;entryY=1;entryDx=0;entryDy=0;" edge="1" parent="1" source="GHDp1U4beQGM8JzhK_mK-5" target="GHDp1U4beQGM8JzhK_mK-8">
          <mxGeometry width="50" height="50" relative="1" as="geometry">
            <mxPoint x="400" y="350" as="sourcePoint" />
            <mxPoint x="450" y="300" as="targetPoint" />
            <Array as="points">
              <mxPoint x="280" y="480" />
            </Array>
          </mxGeometry>
        </mxCell>
        <mxCell id="GHDp1U4beQGM8JzhK_mK-10" value="os (callback)" style="rounded=0;whiteSpace=wrap;html=1;" vertex="1" parent="1">
          <mxGeometry x="390" y="-50" width="120" height="60" as="geometry" />
        </mxCell>
        <mxCell id="GHDp1U4beQGM8JzhK_mK-13" value="&lt;font&gt;Input Layer/Driver&lt;/font&gt;" style="text;html=1;strokeColor=none;fillColor=none;align=center;verticalAlign=middle;whiteSpace=wrap;rounded=0;dashed=1;fontColor=#6666FF;" vertex="1" parent="1">
          <mxGeometry x="140" y="480" width="140" height="30" as="geometry" />
        </mxCell>
        <mxCell id="GHDp1U4beQGM8JzhK_mK-14" value="" style="rounded=1;whiteSpace=wrap;html=1;dashed=1;fontColor=#FFFFFF;fillColor=none;arcSize=3;" vertex="1" parent="1">
          <mxGeometry x="490" y="130" width="400" height="380" as="geometry" />
        </mxCell>
        <mxCell id="GHDp1U4beQGM8JzhK_mK-15" value="&lt;font&gt;Output Layer/Driver&lt;/font&gt;" style="text;html=1;strokeColor=none;fillColor=none;align=center;verticalAlign=middle;whiteSpace=wrap;rounded=0;dashed=1;fontColor=#6666FF;" vertex="1" parent="1">
          <mxGeometry x="620" y="480" width="140" height="30" as="geometry" />
        </mxCell>
        <mxCell id="GHDp1U4beQGM8JzhK_mK-16" value="usb output" style="rounded=0;whiteSpace=wrap;html=1;" vertex="1" parent="1">
          <mxGeometry x="510" y="150" width="120" height="60" as="geometry" />
        </mxCell>
        <mxCell id="GHDp1U4beQGM8JzhK_mK-17" value="ble output" style="rounded=0;whiteSpace=wrap;html=1;" vertex="1" parent="1">
          <mxGeometry x="750" y="150" width="120" height="60" as="geometry" />
        </mxCell>
        <mxCell id="GHDp1U4beQGM8JzhK_mK-18" value="screen output ??&lt;br&gt;动态-接口/协议?" style="rounded=0;whiteSpace=wrap;html=1;" vertex="1" parent="1">
          <mxGeometry x="630" y="280" width="120" height="60" as="geometry" />
        </mxCell>
      </root>
    </mxGraphModel>
  </diagram>
</mxfile>
